<?xml version="1.0" encoding="utf-8"?>
<!-- Generator: Adobe Illustrator 18.1.1, SVG Export Plug-In . SVG Version: 6.00 Build 0)  -->
<svg version="1.1" id="famous-logo" xmlns="http://www.w3.org/2000/svg" xmlns:xlink="http://www.w3.org/1999/xlink" x="0px"
	 y="0px" viewBox="5 96.9 2203.4 600.4" enable-background="new 5 96.9 2203.4 600.4" xml:space="preserve">
<g>
	<path fill="#FFFFFF" d="M444.7,343.1c1.4-33.2-8.2-59.8-21.3-81.1c-13.1-21.3-36.7-42.4-62.7-39.9c-15.6,1.4-22.3,7.4-25.8,15.6
		c-3.5,8.4-4.3,27.2-4.3,35.2v199.3c37.7-5.1,72.7-26.8,94.6-61.4C437.4,391.4,443.7,365.8,444.7,343.1"/>
	<path fill="#FFFFFF" d="M311,96.9c-169,0-306,135-306,301.3C5,552.8,122.8,679.8,275,697c7.6,0.4,11.9-0.4,15.6-3.3
		c2.9-2.5,4.1-6.6,4.1-10l0.2-179.6c-82.3-8.6-148.3-76.6-147.3-160c1-79.7,55.9-143.6,128.4-158.5c1.8-0.4,3.3-0.8,4.3,0.2
		c1.2,1,0.4,3.9,0.4,3.9l-5.5,26.6c0,0-0.4,1.6-0.8,2.3c-0.4,0.4-1.2,0.8-1.8,1c-31.5,9.8-60,31.1-73.9,56.9
		c-11.5,21.5-19,37.7-19,67c0,63.1,49.6,121,115.1,128.8V273c0-20.9,1-45.1,13.3-61.9c9.6-12.9,26.2-20.9,52.4-20.9
		c37.9,0,83.2,27.7,105.9,87.7c7,18,11.1,41.2,10.9,66C476.9,427,412,495,330,504l-0.2,179.6c0,4.7,1.4,8.2,4.3,10.4
		c3.3,2.7,6.1,3.7,15.4,2.9c3.5-0.2,10-1.2,12.7-1.6c144.4-24.2,254.4-147.9,254.4-297C617,231.8,480,96.9,311,96.9"/>
</g>
<text transform="matrix(1 0 0 1 810 546.0899)"><tspan x="0" y="0" fill="#FFFFFF" font-family="'AvenirNext-Regular'" font-size="400">fam</tspan><tspan x="684.8" y="0" fill="#FFFFFF" font-family="'AvenirNext-Regular'" font-size="400" letter-spacing="-20">o.</tspan><tspan x="993.2" y="0" fill="#FFFFFF" font-family="'AvenirNext-Regular'" font-size="400">us</tspan></text>
</svg>
