<?xml version="1.0" encoding="utf-8"?>
<!-- Generator: Adobe Illustrator 18.1.1, SVG Export Plug-In . SVG Version: 6.00 Build 0)  -->
<svg version="1.1" id="famous-logo" xmlns="http://www.w3.org/2000/svg" xmlns:xlink="http://www.w3.org/1999/xlink" x="0px"
	 y="0px" viewBox="5 409.5 595.6 166.7" enable-background="new 5 409.5 595.6 166.7" xml:space="preserve">
<g>
	<path fill="#FFFFFF" d="M127.1,477.9c0.4-9.2-2.3-16.6-5.9-22.5c-3.6-5.9-10.2-11.8-17.4-11.1c-4.3,0.4-6.2,2.1-7.2,4.3
		c-1,2.3-1.2,7.6-1.2,9.8v55.4c10.5-1.4,20.2-7.4,26.3-17.1C125.1,491.3,126.9,484.2,127.1,477.9"/>
	<path fill="#FFFFFF" d="M90,409.5c-46.9,0-85,37.5-85,83.7c0,42.9,32.7,78.2,75,83c2.1,0.1,3.3-0.1,4.3-0.9
		c0.8-0.7,1.1-1.8,1.1-2.8l0.1-49.9c-22.9-2.4-41.2-21.3-40.9-44.4c0.3-22.1,15.5-39.9,35.7-44c0.5-0.1,0.9-0.2,1.2,0.1
		c0.3,0.3,0.1,1.1,0.1,1.1l-1.5,7.4c0,0-0.1,0.4-0.2,0.6c-0.1,0.1-0.3,0.2-0.5,0.3c-8.7,2.7-16.7,8.6-20.5,15.8
		c-3.2,6-5.3,10.5-5.3,18.6c0,17.5,13.8,33.6,32,35.8v-55.4c0-5.8,0.3-12.5,3.7-17.2c2.7-3.6,7.3-5.8,14.6-5.8
		c10.5,0,23.1,7.7,29.4,24.4c1.9,5,3.1,11.4,3,18.3c-0.1,23.1-18.1,42-40.9,44.5l-0.1,49.9c0,1.3,0.4,2.3,1.2,2.9
		c0.9,0.7,1.7,1,4.3,0.8c1-0.1,2.8-0.3,3.5-0.4c40.1-6.7,70.7-41.1,70.7-82.5C175,447,136.9,409.5,90,409.5"/>
</g>
<text transform="matrix(1 0 0 1 228.5906 534.2821)" fill="#FFFFFF" font-family="'AvenirNext-Regular'" font-size="111.101">famous</text>
</svg>
